<svg width="17" height="16" viewBox="0 0 17 16" fill="none" xmlns="http://www.w3.org/2000/svg">
<path d="M2.38888 8.53324L13.4719 8.53324L9.22804 12.4137C9.00582 12.6169 8.99721 12.9545 9.20888 13.1679C9.42027 13.3809 9.77193 13.3894 9.99443 13.1863L14.8411 8.75431C15.0508 8.55271 15.1667 8.28498 15.1667 7.99991C15.1667 7.71512 15.0508 7.44712 14.8314 7.23672L9.99416 2.81384C9.88666 2.71545 9.74888 2.66665 9.6111 2.66665C9.46443 2.66665 9.31777 2.72211 9.2086 2.83224C8.99693 3.04558 9.00555 3.38291 9.22777 3.5861L13.4894 7.46659L2.38888 7.46659C2.08221 7.46659 1.83332 7.70552 1.83332 7.99991C1.83332 8.29431 2.08221 8.53324 2.38888 8.53324Z" fill="#7374FF"/>
</svg>
